<svg width="100" height="90" viewBox="0 0 100 90" fill="none" xmlns="http://www.w3.org/2000/svg">
<path d="M50.4592 3.94531L58.6558 8.80252L95.2872 71.7438V78.4225L90.1264 83.5833L80.1084 86.3155H22.7327L10.8932 83.5833L6.13721 78.4225V67.4938L38.0126 11.2311L50.4592 3.94531Z" fill="#151515"/>
<path d="M49.9995 63.2461C47.2471 63.2461 44.9399 65.5533 44.9399 68.3057C44.9399 71.0581 47.2471 73.3653 49.9995 73.3653C52.6508 73.3653 55.0591 71.0581 54.9377 68.4271C55.0591 65.533 52.7722 63.2461 49.9995 63.2461Z" fill="#BEC8F9"/>
<path d="M96.8304 81.1761C100.008 75.6915 100.028 69.1545 96.8708 63.6901L65.1776 8.80369C62.0406 3.27862 56.3739 0 50.019 0C43.6642 0 37.9974 3.29885 34.8605 8.78345L3.12673 63.7306C-0.0304526 69.2557 -0.0102141 75.8331 3.18745 81.3177C6.34463 86.7416 11.9911 90 18.3055 90H81.6111C87.9457 90 93.6327 86.7011 96.8304 81.1761ZM89.9493 77.2094C88.1886 80.2451 85.0719 82.0463 81.5909 82.0463H18.2853C14.8447 82.0463 11.7483 80.2856 10.028 77.3105C8.28752 74.295 8.26728 70.6926 10.0078 67.6568L41.7415 12.7299C43.4618 9.71441 46.538 7.93344 50.019 7.93344C53.4798 7.93344 56.5763 9.73465 58.2965 12.7502L90.01 67.6771C91.7101 70.6319 91.6898 74.1938 89.9493 77.2094Z" fill="url(#paint0_linear_210_765)"/>
<path d="M48.7439 27.7268C46.3355 28.4149 44.8379 30.6007 44.8379 33.2519C44.9593 34.8507 45.0605 36.4698 45.1819 38.0686C45.526 44.1604 45.87 50.1307 46.2141 56.2224C46.3355 58.2868 47.9344 59.7844 49.9987 59.7844C52.063 59.7844 53.6821 58.1856 53.7832 56.101C53.7832 54.8462 53.7832 53.6926 53.9047 52.4176C54.1273 48.5116 54.3702 44.6056 54.5928 40.6996C54.7142 38.1698 54.9368 35.64 55.0583 33.1102C55.0583 32.1995 54.9368 31.39 54.5928 30.5804C53.5606 28.3137 51.1523 27.1602 48.7439 27.7268Z" fill="#BEC8F9"/>
<defs>
<linearGradient id="paint0_linear_210_765" x1="5.00489" y1="90.0251" x2="64.0951" y2="-19.041" gradientUnits="userSpaceOnUse">
<stop offset="0.0407048" stop-color="#0A89FF"/>
<stop offset="0.911352" stop-color="#153AEA"/>
</linearGradient>
</defs>
</svg>
