<?xml version="1.0" standalone="no"?>
<!DOCTYPE svg PUBLIC "-//W3C//DTD SVG 20010904//EN"
 "http://www.w3.org/TR/2001/REC-SVG-20010904/DTD/svg10.dtd">
<svg version="1.0" xmlns="http://www.w3.org/2000/svg"
 width="512.000000pt" height="512.000000pt" viewBox="0 0 512.000000 512.000000"
 preserveAspectRatio="xMidYMid meet">

<g transform="translate(0.000000,512.000000) scale(0.100000,-0.100000)"
fill="#000000" stroke="none">
<path d="M2939 5100 c-32 -17 -151 -202 -954 -1477 -739 -1174 -919 -1466
-923 -1499 -6 -57 26 -118 78 -144 38 -19 58 -20 655 -20 338 0 615 -1 615 -3
0 -2 -101 -405 -225 -895 -124 -491 -225 -904 -225 -918 0 -44 37 -102 80
-124 49 -25 90 -25 139 0 35 17 123 154 943 1457 498 791 913 1452 922 1470
35 68 5 158 -64 193 -38 19 -58 20 -655 20 -338 0 -615 1 -615 3 0 2 101 405
225 895 124 491 225 904 225 918 0 44 -37 102 -80 124 -49 25 -94 25 -141 0z
m-439 -1540 c-71 -283 -130 -533 -130 -555 0 -46 27 -96 67 -122 25 -17 70
-18 613 -23 l585 -5 -570 -906 c-313 -499 -571 -906 -572 -905 -1 1 56 233
127 516 71 283 130 533 130 555 0 46 -27 96 -67 122 -25 17 -70 18 -613 23
l-585 5 570 906 c313 499 571 906 572 905 1 -1 -56 -233 -127 -516z"/>
</g>
</svg>
