<svg width="20" height="20" viewBox="0 0 20 20" fill="none" xmlns="http://www.w3.org/2000/svg">
<path d="M5.7 14.3C6.0866 14.6866 6.7134 14.6866 7.1 14.3L10 11.4L12.9 14.3C13.2866 14.6866 13.9134 14.6866 14.3 14.3C14.6866 13.9134 14.6866 13.2866 14.3 12.9L11.4 10L14.3 7.1C14.6866 6.7134 14.6866 6.0866 14.3 5.7C13.9134 5.3134 13.2866 5.3134 12.9 5.7L10 8.6L7.1 5.7C6.7134 5.3134 6.0866 5.3134 5.7 5.7C5.3134 6.0866 5.3134 6.7134 5.7 7.1L8.6 10L5.7 12.9C5.3134 13.2866 5.3134 13.9134 5.7 14.3ZM10 20C8.61667 20 7.31667 19.7375 6.1 19.2125C4.88333 18.6875 3.825 17.975 2.925 17.075C2.025 16.175 1.3125 15.1167 0.7875 13.9C0.2625 12.6833 0 11.3833 0 10C0 8.61667 0.2625 7.31667 0.7875 6.1C1.3125 4.88333 2.025 3.825 2.925 2.925C3.825 2.025 4.88333 1.3125 6.1 0.7875C7.31667 0.2625 8.61667 0 10 0C11.3833 0 12.6833 0.2625 13.9 0.7875C15.1167 1.3125 16.175 2.025 17.075 2.925C17.975 3.825 18.6875 4.88333 19.2125 6.1C19.7375 7.31667 20 8.61667 20 10C20 11.3833 19.7375 12.6833 19.2125 13.9C18.6875 15.1167 17.975 16.175 17.075 17.075C16.175 17.975 15.1167 18.6875 13.9 19.2125C12.6833 19.7375 11.3833 20 10 20Z" fill="#E8EAED"/>
</svg>
