<svg width="120" height="120" viewBox="0 0 120 120" fill="none" xmlns="http://www.w3.org/2000/svg">
<path fill-rule="evenodd" clip-rule="evenodd" d="M64.7955 24.983C64.805 27.7444 62.574 29.9906 59.8125 29.9999C52.299 30.0255 44.8685 31.5929 37.9815 34.6014C31.0954 37.6095 24.8988 41.9968 19.774 47.4925C17.8907 49.5121 14.7268 49.6225 12.7072 47.7392C10.6876 45.8559 10.5772 42.6921 12.4604 40.6725C18.517 34.1776 25.8403 28.9927 33.9784 25.4377C42.1155 21.8831 50.897 20.0302 59.7785 20C62.54 19.9906 64.786 22.2216 64.7955 24.983ZM76.4635 21.4645C78.416 19.5119 81.582 19.5119 83.5345 21.4645L89.999 27.9289L96.4635 21.4645C98.416 19.5119 101.582 19.5119 103.535 21.4645C105.487 23.4171 105.487 26.5829 103.535 28.5355L97.07 34.9999L103.535 41.4643C105.487 43.4169 105.487 46.5828 103.535 48.5354C101.582 50.488 98.416 50.488 96.4635 48.5354L89.999 42.071L83.5345 48.5354C81.582 50.488 78.416 50.488 76.4635 48.5354C74.511 46.5828 74.511 43.4169 76.4635 41.4643L82.928 34.9999L76.4635 28.5355C74.511 26.5829 74.511 23.4171 76.4635 21.4645ZM64.79 44.9736C64.805 47.735 62.578 49.9854 59.8165 50C55.046 50.025 50.3295 51.0255 45.9594 52.9395C41.5893 54.8535 37.6566 57.6405 34.4029 61.1295C32.5196 63.149 29.3557 63.2595 27.3361 61.3765C25.3165 59.493 25.2061 56.329 27.0893 54.3095C31.2727 49.8236 36.329 46.2401 41.9478 43.7794C47.5666 41.3186 53.63 40.0324 59.764 40C62.5255 39.9855 64.7755 42.2122 64.79 44.9736ZM67.8775 71.6175C65.366 70.541 62.661 69.9905 59.9295 70C57.196 70.0095 54.492 70.5785 51.9895 71.6715C49.4861 72.7655 47.233 74.3605 45.3697 76.359C43.4864 78.3785 40.3225 78.489 38.3029 76.6055C36.2833 74.7225 36.1729 71.5585 38.0561 69.539C40.8512 66.5415 44.2307 64.149 47.9863 62.508C51.743 60.8665 55.7975 60.0145 59.8945 60C63.993 59.9855 68.0505 60.8115 71.817 62.426C75.583 64.04 78.9805 66.4085 81.797 69.387C83.6945 71.3935 83.606 74.558 81.5995 76.4555C79.593 78.353 76.4285 78.2645 74.5315 76.258C72.6545 74.2735 70.39 72.694 67.8775 71.6175ZM49.999 90C49.999 84.477 54.476 80 59.999 80C65.522 80 69.999 84.477 69.999 90C69.999 95.523 65.522 100 59.999 100C54.476 100 49.999 95.523 49.999 90Z" fill="url(#paint0_linear_2960_2960)"/>
<defs>
<linearGradient id="paint0_linear_2960_2960" x1="103.431" y1="81.4699" x2="19.2037" y2="23.7093" gradientUnits="userSpaceOnUse">
<stop stop-color="#0575E6"/>
<stop offset="1" stop-color="#FF0CF5"/>
</linearGradient>
</defs>
</svg>
